<?xml version="1.0" encoding="utf-8"?>
<!-- Generator: Adobe Illustrator 24.0.3, SVG Export Plug-In . SVG Version: 6.00 Build 0)  -->
<svg version="1.1" id="Layer_1" xmlns="http://www.w3.org/2000/svg" xmlns:xlink="http://www.w3.org/1999/xlink" x="0px" y="0px"
	 viewBox="0 0 80 80" style="enable-background:new 0 0 80 80;" xml:space="preserve">
<style type="text/css">
	.st0{fill:#B2E5F6;}
	.st1{fill:#232F3E;}
	.st2{display:none;}
	.st3{display:inline;}
</style>
<g>
	<path class="st0" d="M15.32,58.85l-4.25,1.91c-0.95,0.43-2.07,0.01-2.5-0.94L4.5,50.78c-0.43-0.95-0.01-2.07,0.94-2.5l4.25-1.91
		l0,0L15.32,58.85L15.32,58.85z"/>
	<path class="st0" d="M36.2,54.29l27.62-4.68c0.51-0.09,0.86-0.58,0.77-1.1c-0.02-0.08-0.04-0.16-0.07-0.23L50.69,17.55
		c-0.22-0.48-0.78-0.69-1.25-0.48c-0.07,0.03-0.14,0.07-0.21,0.13L27.4,34.79c-0.34,0.27-0.44,0.74-0.26,1.13l8.04,17.84
		C35.36,54.15,35.78,54.37,36.2,54.29z"/>
	<path class="st0" d="M37.26,71.68l-4.15,1.89c-0.39,0.18-0.85,0.06-1.11-0.26l-9.71-11.82c-0.34-0.39-0.3-0.99,0.1-1.34
		c0.09-0.07,0.18-0.13,0.29-0.17l7.78-3.5c0.47-0.22,1.03,0,1.25,0.47l6.07,13.47c0.21,0.48-0.01,1.03-0.49,1.25
		C37.28,71.67,37.27,71.68,37.26,71.68z"/>
	<path class="st1" d="M47.79,14.29c-0.32-0.71-1.16-1.03-1.87-0.71c-0.11,0.05-0.22,0.11-0.31,0.19l-23.18,18.7L4.37,40.59
		c-0.71,0.32-1.04,1.16-0.72,1.87c0,0.01,0.01,0.01,0.01,0.02l0.94,2.05l-2.1,0.94c-2.14,0.96-3.09,3.46-2.14,5.61l3.29,7.32
		c0.95,2.14,3.46,3.12,5.62,2.16c0.02-0.01,0.04-0.02,0.06-0.02l2.01-0.94l0.94,2.05c0.32,0.71,1.16,1.04,1.87,0.72
		c0.01,0,0.01-0.01,0.02-0.01l2.38-1.08l10.25,12.5c0.41,0.5,1.1,0.66,1.68,0.4l5.67-2.55c0.71-0.32,1.04-1.16,0.72-1.87
		c0-0.01-0.01-0.01-0.01-0.02L28.6,55.82l3.61-1.62l29.37-4.98c0.77-0.15,1.27-0.9,1.12-1.66c-0.02-0.09-0.04-0.17-0.07-0.25
		L47.79,14.29z M8.12,57.95c-0.71,0.33-1.55,0.02-1.88-0.69c0-0.01-0.01-0.01-0.01-0.02l-3.28-7.32c-0.33-0.71-0.02-1.55,0.69-1.88
		c0.01,0,0.01-0.01,0.02-0.01l2.1-0.94l4.46,9.9L8.12,57.95z M13.38,57.14L13.38,57.14l-5.62-12.5l0,0l-0.93-2.07l15.62-7.03
		l7.47,16.58l-3.78,1.7l0,0l-9.76,4.42l0,0l-2.08,0.94L13.38,57.14z M31.7,69.63l-3.36,1.53l-9.07-11.08l6.79-3.06L31.7,69.63z
		 M32.65,51.28l-3.86-8.58l-3.86-8.62l21.05-16.94l13.34,29.63L32.65,51.28z"/>
	<path class="st1" d="M20.51,40.56c-0.32-0.71-1.16-1.04-1.87-0.72c-0.01,0-0.01,0.01-0.02,0.01l-6.05,2.74
		c-0.71,0.32-1.03,1.16-0.71,1.88s1.16,1.03,1.88,0.71l6.1-2.74C20.53,42.08,20.84,41.25,20.51,40.56z"/>
	<path class="st1" d="M22.68,45.41c-0.32-0.71-1.16-1.04-1.87-0.72c-0.01,0-0.01,0.01-0.02,0.01l-6.06,2.74
		c-0.71,0.32-1.03,1.16-0.71,1.88c0.32,0.71,1.16,1.03,1.88,0.71l6.1-2.72C22.7,46.97,23,46.12,22.68,45.41L22.68,45.41z"/>
	<path class="st1" d="M17.54,55.03c0.2,0,0.39-0.04,0.58-0.12l6.06-2.74c0.71-0.32,1.03-1.16,0.71-1.88
		c-0.32-0.71-1.16-1.03-1.88-0.71l0,0L17,52.32c-0.71,0.32-1.04,1.16-0.72,1.87c0.23,0.51,0.74,0.85,1.3,0.84H17.54z"/>
	<path class="st1" d="M54.4,16.05c0.32,0,0.64-0.11,0.89-0.31l9.32-7.52c0.61-0.49,0.71-1.38,0.22-1.99s-1.38-0.71-1.99-0.22
		l-9.32,7.52c-0.61,0.49-0.71,1.38-0.22,1.99C53.56,15.86,53.97,16.05,54.4,16.05z"/>
	<path class="st1" d="M64.28,16.1l-6.07,3.58c-0.65,0.44-0.82,1.32-0.38,1.97c0.4,0.59,1.18,0.8,1.82,0.47l6.07-3.58
		c0.7-0.35,0.98-1.21,0.62-1.9c-0.35-0.7-1.21-0.98-1.9-0.62C64.37,16.04,64.32,16.07,64.28,16.1z"/>
	<path class="st1" d="M72.23,33.72c0.76-0.2,1.22-0.97,1.02-1.73c-0.2-0.76-0.97-1.22-1.73-1.02c-0.06,0.02-0.1,0.03-0.16,0.05
		l-6.7,2.18c-0.76,0.2-1.22,0.97-1.02,1.73s0.97,1.22,1.73,1.02c0.06-0.02,0.1-0.03,0.16-0.05L72.23,33.72z"/>
	<path class="st1" d="M79.97,39.86c-0.13-0.78-0.86-1.3-1.63-1.16l0,0l-11.8,1.98c-0.78,0.06-1.37,0.75-1.3,1.54
		c0.06,0.78,0.75,1.37,1.54,1.3h0.24l11.8-1.99c0.78-0.13,1.3-0.86,1.17-1.63C79.97,39.88,79.97,39.88,79.97,39.86z"/>
	<path class="st1" d="M59.29,28.94c0.32,0.71,1.16,1.04,1.87,0.72c0.01,0,0.01-0.01,0.02-0.01l11.86-5.34
		c0.65-0.44,0.82-1.32,0.38-1.97c-0.34-0.51-0.99-0.74-1.58-0.57L60,27.07C59.29,27.39,58.97,28.23,59.29,28.94z"/>
</g>
<g id="Pound" class="st2">
	<g class="st3">
		<g>
			<g>
				<defs>
					<path id="SVGID_1_" d="M641.72,345.37h0.68c4.01-0.01,18.46-0.15,18.49,0.75c0.3,0.07,0.59,0.24,0.81,0.49
						c0.59,0.66,0.54,1.68-0.12,2.27c-3.66,3.3-5.83,7.42-6.52,12.42c-0.09,0.68-0.59,1.19-1.22,1.34
						c-0.09,0.06-0.18,0.12-0.28,0.16c-3.63,1.63-7.5,2.45-11.5,2.45s-7.87-0.82-11.5-2.45c-0.04-0.02-0.08-0.06-0.13-0.13
						c-0.71-0.09-1.29-0.64-1.39-1.37c-0.69-5-2.86-9.11-6.52-12.42c-0.66-0.59-0.71-1.61-0.12-2.27c0.49-0.55,1.27-0.68,1.9-0.37
						C625.18,345.2,637.91,345.36,641.72,345.37z"/>
				</defs>
				<clipPath id="SVGID_2_">
					<use xlink:href="#SVGID_1_"  style="overflow:visible;"/>
				</clipPath>
			</g>
		</g>
		<g>
			<g>
				<defs>
					<ellipse id="SVGID_3_" cx="642.24" cy="331.44" rx="26.65" ry="26.76"/>
				</defs>
				<clipPath id="SVGID_4_">
					<use xlink:href="#SVGID_3_"  style="overflow:visible;"/>
				</clipPath>
			</g>
		</g>
		<g>
			<g>
				<defs>
					<path id="SVGID_5_" d="M639.36,356.74c-15.58,0-28.25-12.73-28.25-28.37c0-15.64,12.67-28.37,28.25-28.37
						s28.25,12.73,28.25,28.37C667.61,344.01,654.93,356.74,639.36,356.74z M639.36,303.21c-13.81,0-25.05,11.29-25.05,25.16
						s11.24,25.16,25.05,25.16s25.05-11.29,25.05-25.16S653.17,303.21,639.36,303.21z"/>
				</defs>
				<clipPath id="SVGID_6_">
					<use xlink:href="#SVGID_5_"  style="overflow:visible;"/>
				</clipPath>
			</g>
		</g>
		<g>
			<g>
				<defs>
					<path id="SVGID_7_" d="M639.36,365.22c-4,0-7.87-0.82-11.5-2.45c-0.81-0.36-1.17-1.31-0.81-2.12s1.3-1.17,2.11-0.81
						c3.21,1.44,6.64,2.17,10.19,2.17s6.98-0.73,10.19-2.17c0.81-0.36,1.75,0,2.11,0.81s0,1.76-0.81,2.12
						C647.23,364.4,643.36,365.22,639.36,365.22"/>
				</defs>
				<clipPath id="SVGID_8_">
					<use xlink:href="#SVGID_7_"  style="overflow:visible;"/>
				</clipPath>
			</g>
		</g>
		<g>
			<g>
				<defs>
					<path id="SVGID_9_" d="M639.36,372.61c-3.43,0-6.74-0.82-9.85-2.45c-0.69-0.36-1-1.31-0.69-2.12s1.12-1.18,1.81-0.81
						c2.75,1.44,5.69,2.17,8.73,2.17s5.98-0.73,8.73-2.17c0.69-0.36,1.5,0,1.81,0.81s0,1.76-0.69,2.12
						C646.1,371.79,642.78,372.61,639.36,372.61"/>
				</defs>
				<clipPath id="SVGID_10_">
					<use xlink:href="#SVGID_9_"  style="overflow:visible;"/>
				</clipPath>
			</g>
		</g>
		<g>
			<g>
				<defs>
					<path id="SVGID_11_" d="M639.36,380c-2.38,0-4.75-0.3-7.06-0.9c-0.86-0.22-1.37-1.1-1.15-1.96s1.09-1.37,1.95-1.15
						c4.1,1.06,8.43,1.06,12.53,0c0.85-0.22,1.73,0.3,1.95,1.15c0.22,0.86-0.29,1.73-1.15,1.96C644.11,379.7,641.73,380,639.36,380"
						/>
				</defs>
				<clipPath id="SVGID_12_">
					<use xlink:href="#SVGID_11_"  style="overflow:visible;"/>
				</clipPath>
			</g>
		</g>
		<g>
			<g>
				<defs>
					<path id="SVGID_13_" d="M629.39,360.89c-0.84-5.79-3.5-10.65-7.95-14.49c-0.69-0.6-1.76-0.54-2.38,0.12
						c-0.62,0.67-0.56,1.69,0.13,2.29c3.85,3.33,6.13,7.49,6.86,12.53c0.13,0.89,0.98,1.5,1.9,1.38
						C628.88,362.59,629.52,361.78,629.39,360.89z"/>
				</defs>
				<clipPath id="SVGID_14_">
					<use xlink:href="#SVGID_13_"  style="overflow:visible;"/>
				</clipPath>
			</g>
		</g>
		<g>
			<g>
				<defs>
					<path id="SVGID_15_" d="M648.57,360.89c0.84-5.79,3.5-10.65,7.95-14.49c0.69-0.6,1.76-0.54,2.38,0.12
						c0.62,0.67,0.56,1.69-0.13,2.29c-3.85,3.33-6.13,7.49-6.86,12.53c-0.13,0.89-0.98,1.5-1.9,1.38
						C649.08,362.59,648.44,361.78,648.57,360.89z"/>
				</defs>
				<clipPath id="SVGID_16_">
					<use xlink:href="#SVGID_15_"  style="overflow:visible;"/>
				</clipPath>
			</g>
		</g>
	</g>
</g>
<g id="Yen" class="st2">
	<g class="st3">
		<g>
			<g>
				<defs>
					<path id="SVGID_17_" d="M641.72,345.37h0.68c4.01-0.01,18.46-0.15,18.49,0.75c0.3,0.07,0.59,0.24,0.81,0.49
						c0.59,0.66,0.54,1.68-0.12,2.27c-3.66,3.3-5.83,7.42-6.52,12.42c-0.09,0.68-0.59,1.19-1.22,1.34
						c-0.09,0.06-0.18,0.12-0.28,0.16c-3.63,1.63-7.5,2.45-11.5,2.45s-7.87-0.82-11.5-2.45c-0.04-0.02-0.08-0.06-0.13-0.13
						c-0.71-0.09-1.29-0.64-1.39-1.37c-0.69-5-2.86-9.11-6.52-12.42c-0.66-0.59-0.71-1.61-0.12-2.27c0.49-0.55,1.27-0.68,1.9-0.37
						C625.18,345.2,637.91,345.36,641.72,345.37z"/>
				</defs>
				<clipPath id="SVGID_18_">
					<use xlink:href="#SVGID_17_"  style="overflow:visible;"/>
				</clipPath>
			</g>
		</g>
		<g>
			<g>
				<defs>
					<ellipse id="SVGID_19_" cx="642.24" cy="331.44" rx="26.65" ry="26.76"/>
				</defs>
				<clipPath id="SVGID_20_">
					<use xlink:href="#SVGID_19_"  style="overflow:visible;"/>
				</clipPath>
			</g>
		</g>
		<g>
			<g>
				<defs>
					<path id="SVGID_21_" d="M639.36,356.74c-15.58,0-28.25-12.73-28.25-28.37c0-15.64,12.67-28.37,28.25-28.37
						s28.25,12.73,28.25,28.37C667.61,344.01,654.93,356.74,639.36,356.74z M639.36,303.21c-13.81,0-25.05,11.29-25.05,25.16
						s11.24,25.16,25.05,25.16s25.05-11.29,25.05-25.16S653.17,303.21,639.36,303.21z"/>
				</defs>
				<clipPath id="SVGID_22_">
					<use xlink:href="#SVGID_21_"  style="overflow:visible;"/>
				</clipPath>
			</g>
		</g>
		<g>
			<g>
				<defs>
					<path id="SVGID_23_" d="M639.36,365.22c-4,0-7.87-0.82-11.5-2.45c-0.81-0.36-1.17-1.31-0.81-2.12s1.3-1.17,2.11-0.81
						c3.21,1.44,6.64,2.17,10.19,2.17s6.98-0.73,10.19-2.17c0.81-0.36,1.75,0,2.11,0.81s0,1.76-0.81,2.12
						C647.23,364.4,643.36,365.22,639.36,365.22"/>
				</defs>
				<clipPath id="SVGID_24_">
					<use xlink:href="#SVGID_23_"  style="overflow:visible;"/>
				</clipPath>
			</g>
		</g>
		<g>
			<g>
				<defs>
					<path id="SVGID_25_" d="M639.36,372.61c-3.43,0-6.74-0.82-9.85-2.45c-0.69-0.36-1-1.31-0.69-2.12s1.12-1.18,1.81-0.81
						c2.75,1.44,5.69,2.17,8.73,2.17s5.98-0.73,8.73-2.17c0.69-0.36,1.5,0,1.81,0.81s0,1.76-0.69,2.12
						C646.1,371.79,642.78,372.61,639.36,372.61"/>
				</defs>
				<clipPath id="SVGID_26_">
					<use xlink:href="#SVGID_25_"  style="overflow:visible;"/>
				</clipPath>
			</g>
		</g>
		<g>
			<g>
				<defs>
					<path id="SVGID_27_" d="M639.36,380c-2.38,0-4.75-0.3-7.06-0.9c-0.86-0.22-1.37-1.1-1.15-1.96s1.09-1.37,1.95-1.15
						c4.1,1.06,8.43,1.06,12.53,0c0.85-0.22,1.73,0.3,1.95,1.15c0.22,0.86-0.29,1.73-1.15,1.96C644.11,379.7,641.73,380,639.36,380"
						/>
				</defs>
				<clipPath id="SVGID_28_">
					<use xlink:href="#SVGID_27_"  style="overflow:visible;"/>
				</clipPath>
			</g>
		</g>
		<g>
			<g>
				<defs>
					<path id="SVGID_29_" d="M629.39,360.89c-0.84-5.79-3.5-10.65-7.95-14.49c-0.69-0.6-1.76-0.54-2.38,0.12
						c-0.62,0.67-0.56,1.69,0.13,2.29c3.85,3.33,6.13,7.49,6.86,12.53c0.13,0.89,0.98,1.5,1.9,1.38
						C628.88,362.59,629.52,361.78,629.39,360.89z"/>
				</defs>
				<clipPath id="SVGID_30_">
					<use xlink:href="#SVGID_29_"  style="overflow:visible;"/>
				</clipPath>
			</g>
		</g>
		<g>
			<g>
				<defs>
					<path id="SVGID_31_" d="M648.57,360.89c0.84-5.79,3.5-10.65,7.95-14.49c0.69-0.6,1.76-0.54,2.38,0.12
						c0.62,0.67,0.56,1.69-0.13,2.29c-3.85,3.33-6.13,7.49-6.86,12.53c-0.13,0.89-0.98,1.5-1.9,1.38
						C649.08,362.59,648.44,361.78,648.57,360.89z"/>
				</defs>
				<clipPath id="SVGID_32_">
					<use xlink:href="#SVGID_31_"  style="overflow:visible;"/>
				</clipPath>
			</g>
		</g>
	</g>
</g>
<g id="Euro" class="st2">
	<g class="st3">
		<g>
			<g>
				<defs>
					<path id="SVGID_33_" d="M641.72,345.37h0.68c4.01-0.01,18.46-0.15,18.49,0.75c0.3,0.07,0.59,0.24,0.81,0.49
						c0.59,0.66,0.54,1.68-0.12,2.27c-3.66,3.3-5.83,7.42-6.52,12.42c-0.09,0.68-0.59,1.19-1.22,1.34
						c-0.09,0.06-0.18,0.12-0.28,0.16c-3.63,1.63-7.5,2.45-11.5,2.45s-7.87-0.82-11.5-2.45c-0.04-0.02-0.08-0.06-0.13-0.13
						c-0.71-0.09-1.29-0.64-1.39-1.37c-0.69-5-2.86-9.11-6.52-12.42c-0.66-0.59-0.71-1.61-0.12-2.27c0.49-0.55,1.27-0.68,1.9-0.37
						C625.18,345.2,637.91,345.36,641.72,345.37z"/>
				</defs>
				<clipPath id="SVGID_34_">
					<use xlink:href="#SVGID_33_"  style="overflow:visible;"/>
				</clipPath>
			</g>
		</g>
		<g>
			<g>
				<defs>
					<ellipse id="SVGID_35_" cx="642.24" cy="331.44" rx="26.65" ry="26.76"/>
				</defs>
				<clipPath id="SVGID_36_">
					<use xlink:href="#SVGID_35_"  style="overflow:visible;"/>
				</clipPath>
			</g>
		</g>
		<g>
			<g>
				<defs>
					<path id="SVGID_37_" d="M639.36,356.74c-15.58,0-28.25-12.73-28.25-28.37c0-15.64,12.67-28.37,28.25-28.37
						s28.25,12.73,28.25,28.37C667.61,344.01,654.93,356.74,639.36,356.74z M639.36,303.21c-13.81,0-25.05,11.29-25.05,25.16
						s11.24,25.16,25.05,25.16s25.05-11.29,25.05-25.16S653.17,303.21,639.36,303.21z"/>
				</defs>
				<clipPath id="SVGID_38_">
					<use xlink:href="#SVGID_37_"  style="overflow:visible;"/>
				</clipPath>
			</g>
		</g>
		<g>
			<g>
				<defs>
					<path id="SVGID_39_" d="M639.36,365.22c-4,0-7.87-0.82-11.5-2.45c-0.81-0.36-1.17-1.31-0.81-2.12s1.3-1.17,2.11-0.81
						c3.21,1.44,6.64,2.17,10.19,2.17s6.98-0.73,10.19-2.17c0.81-0.36,1.75,0,2.11,0.81s0,1.76-0.81,2.12
						C647.23,364.4,643.36,365.22,639.36,365.22"/>
				</defs>
				<clipPath id="SVGID_40_">
					<use xlink:href="#SVGID_39_"  style="overflow:visible;"/>
				</clipPath>
			</g>
		</g>
		<g>
			<g>
				<defs>
					<path id="SVGID_41_" d="M639.36,372.61c-3.43,0-6.74-0.82-9.85-2.45c-0.69-0.36-1-1.31-0.69-2.12s1.12-1.18,1.81-0.81
						c2.75,1.44,5.69,2.17,8.73,2.17s5.98-0.73,8.73-2.17c0.69-0.36,1.5,0,1.81,0.81s0,1.76-0.69,2.12
						C646.1,371.79,642.78,372.61,639.36,372.61"/>
				</defs>
				<clipPath id="SVGID_42_">
					<use xlink:href="#SVGID_41_"  style="overflow:visible;"/>
				</clipPath>
			</g>
		</g>
		<g>
			<g>
				<defs>
					<path id="SVGID_43_" d="M639.36,380c-2.38,0-4.75-0.3-7.06-0.9c-0.86-0.22-1.37-1.1-1.15-1.96s1.09-1.37,1.95-1.15
						c4.1,1.06,8.43,1.06,12.53,0c0.85-0.22,1.73,0.3,1.95,1.15c0.22,0.86-0.29,1.73-1.15,1.96C644.11,379.7,641.73,380,639.36,380"
						/>
				</defs>
				<clipPath id="SVGID_44_">
					<use xlink:href="#SVGID_43_"  style="overflow:visible;"/>
				</clipPath>
			</g>
		</g>
		<g>
			<g>
				<defs>
					<path id="SVGID_45_" d="M629.39,360.89c-0.84-5.79-3.5-10.65-7.95-14.49c-0.69-0.6-1.76-0.54-2.38,0.12
						c-0.62,0.67-0.56,1.69,0.13,2.29c3.85,3.33,6.13,7.49,6.86,12.53c0.13,0.89,0.98,1.5,1.9,1.38
						C628.88,362.59,629.52,361.78,629.39,360.89z"/>
				</defs>
				<clipPath id="SVGID_46_">
					<use xlink:href="#SVGID_45_"  style="overflow:visible;"/>
				</clipPath>
			</g>
		</g>
		<g>
			<g>
				<defs>
					<path id="SVGID_47_" d="M648.57,360.89c0.84-5.79,3.5-10.65,7.95-14.49c0.69-0.6,1.76-0.54,2.38,0.12
						c0.62,0.67,0.56,1.69-0.13,2.29c-3.85,3.33-6.13,7.49-6.86,12.53c-0.13,0.89-0.98,1.5-1.9,1.38
						C649.08,362.59,648.44,361.78,648.57,360.89z"/>
				</defs>
				<clipPath id="SVGID_48_">
					<use xlink:href="#SVGID_47_"  style="overflow:visible;"/>
				</clipPath>
			</g>
		</g>
	</g>
</g>
<g id="Rupee" class="st2">
	<g class="st3">
		<g>
			<g>
				<defs>
					<path id="SVGID_49_" d="M641.72,345.37h0.68c4.01-0.01,18.46-0.15,18.49,0.75c0.3,0.07,0.59,0.24,0.81,0.49
						c0.59,0.66,0.54,1.68-0.12,2.27c-3.66,3.3-5.83,7.42-6.52,12.42c-0.09,0.68-0.59,1.19-1.22,1.34
						c-0.09,0.06-0.18,0.12-0.28,0.16c-3.63,1.63-7.5,2.45-11.5,2.45s-7.87-0.82-11.5-2.45c-0.04-0.02-0.08-0.06-0.13-0.13
						c-0.71-0.09-1.29-0.64-1.39-1.37c-0.69-5-2.86-9.11-6.52-12.42c-0.66-0.59-0.71-1.61-0.12-2.27c0.49-0.55,1.27-0.68,1.9-0.37
						C625.18,345.2,637.91,345.36,641.72,345.37z"/>
				</defs>
				<clipPath id="SVGID_50_">
					<use xlink:href="#SVGID_49_"  style="overflow:visible;"/>
				</clipPath>
			</g>
		</g>
		<g>
			<g>
				<defs>
					<ellipse id="SVGID_51_" cx="642.24" cy="331.44" rx="26.65" ry="26.76"/>
				</defs>
				<clipPath id="SVGID_52_">
					<use xlink:href="#SVGID_51_"  style="overflow:visible;"/>
				</clipPath>
			</g>
		</g>
		<g>
			<g>
				<defs>
					<path id="SVGID_53_" d="M639.36,356.74c-15.58,0-28.25-12.73-28.25-28.37c0-15.64,12.67-28.37,28.25-28.37
						s28.25,12.73,28.25,28.37C667.61,344.01,654.93,356.74,639.36,356.74z M639.36,303.21c-13.81,0-25.05,11.29-25.05,25.16
						s11.24,25.16,25.05,25.16s25.05-11.29,25.05-25.16S653.17,303.21,639.36,303.21z"/>
				</defs>
				<clipPath id="SVGID_54_">
					<use xlink:href="#SVGID_53_"  style="overflow:visible;"/>
				</clipPath>
			</g>
		</g>
		<g>
			<g>
				<defs>
					<path id="SVGID_55_" d="M639.36,365.22c-4,0-7.87-0.82-11.5-2.45c-0.81-0.36-1.17-1.31-0.81-2.12s1.3-1.17,2.11-0.81
						c3.21,1.44,6.64,2.17,10.19,2.17s6.98-0.73,10.19-2.17c0.81-0.36,1.75,0,2.11,0.81s0,1.76-0.81,2.12
						C647.23,364.4,643.36,365.22,639.36,365.22"/>
				</defs>
				<clipPath id="SVGID_56_">
					<use xlink:href="#SVGID_55_"  style="overflow:visible;"/>
				</clipPath>
			</g>
		</g>
		<g>
			<g>
				<defs>
					<path id="SVGID_57_" d="M639.36,372.61c-3.43,0-6.74-0.82-9.85-2.45c-0.69-0.36-1-1.31-0.69-2.12s1.12-1.18,1.81-0.81
						c2.75,1.44,5.69,2.17,8.73,2.17s5.98-0.73,8.73-2.17c0.69-0.36,1.5,0,1.81,0.81s0,1.76-0.69,2.12
						C646.1,371.79,642.78,372.61,639.36,372.61"/>
				</defs>
				<clipPath id="SVGID_58_">
					<use xlink:href="#SVGID_57_"  style="overflow:visible;"/>
				</clipPath>
			</g>
		</g>
		<g>
			<g>
				<defs>
					<path id="SVGID_59_" d="M639.36,380c-2.38,0-4.75-0.3-7.06-0.9c-0.86-0.22-1.37-1.1-1.15-1.96s1.09-1.37,1.95-1.15
						c4.1,1.06,8.43,1.06,12.53,0c0.85-0.22,1.73,0.3,1.95,1.15c0.22,0.86-0.29,1.73-1.15,1.96C644.11,379.7,641.73,380,639.36,380"
						/>
				</defs>
				<clipPath id="SVGID_60_">
					<use xlink:href="#SVGID_59_"  style="overflow:visible;"/>
				</clipPath>
			</g>
		</g>
		<g>
			<g>
				<defs>
					<path id="SVGID_61_" d="M629.39,360.89c-0.84-5.79-3.5-10.65-7.95-14.49c-0.69-0.6-1.76-0.54-2.38,0.12
						c-0.62,0.67-0.56,1.69,0.13,2.29c3.85,3.33,6.13,7.49,6.86,12.53c0.13,0.89,0.98,1.5,1.9,1.38
						C628.88,362.59,629.52,361.78,629.39,360.89z"/>
				</defs>
				<clipPath id="SVGID_62_">
					<use xlink:href="#SVGID_61_"  style="overflow:visible;"/>
				</clipPath>
			</g>
		</g>
		<g>
			<g>
				<defs>
					<path id="SVGID_63_" d="M648.57,360.89c0.84-5.79,3.5-10.65,7.95-14.49c0.69-0.6,1.76-0.54,2.38,0.12
						c0.62,0.67,0.56,1.69-0.13,2.29c-3.85,3.33-6.13,7.49-6.86,12.53c-0.13,0.89-0.98,1.5-1.9,1.38
						C649.08,362.59,648.44,361.78,648.57,360.89z"/>
				</defs>
				<clipPath id="SVGID_64_">
					<use xlink:href="#SVGID_63_"  style="overflow:visible;"/>
				</clipPath>
			</g>
		</g>
	</g>
</g>
</svg>
