<?xml version="1.0" encoding="utf-8"?>
<!-- Generator: Adobe Illustrator 24.0.3, SVG Export Plug-In . SVG Version: 6.00 Build 0)  -->
<svg version="1.1" id="Layer_1" xmlns="http://www.w3.org/2000/svg" xmlns:xlink="http://www.w3.org/1999/xlink" x="0px" y="0px"
	 viewBox="0 0 80 80" style="enable-background:new 0 0 80 80;" xml:space="preserve">
<style type="text/css">
	.st0{fill:#B2E5F6;}
	.st1{fill:#232F3E;}
	.st2{enable-background:new    ;}
	.st3{clip-path:url(#SVGID_2_);}
	.st4{clip-path:url(#SVGID_4_);}
	.st5{clip-path:url(#SVGID_6_);fill:#232F3E;}
	.st6{display:none;}
	.st7{display:inline;}
</style>
<g>
	<path class="st0" d="M74.82,51.74H59.91c-0.44,0-0.81-0.36-0.81-0.8l-0.09-13.69c0-0.22,0.08-0.42,0.24-0.58
		c0.15-0.15,0.36-0.24,0.58-0.24h4.3l-2.66-3.96c-0.8-1.2-2.15-1.91-3.59-1.91H33.72l-0.01,0.09h-1.65c0-2.82-0.92-5.42-2.46-7.54
		c-0.28-0.38-0.57-0.75-0.89-1.09c-2.36-2.61-5.76-4.26-9.55-4.26s-7.19,1.65-9.55,4.26C9.29,22.37,9,22.73,8.72,23.11
		c-1.54,2.12-2.46,4.72-2.46,7.54s0.92,5.42,2.46,7.54c0.28,0.38,0.57,0.75,0.89,1.09c1.87,2.07,4.4,3.52,7.24,4.04v1.65v5.06v1.62
		v9.76l1.76-1.04l0.19-0.77c0.73-3.04,3.43-5.16,6.55-5.16s5.82,2.12,6.55,5.16l0.19,0.77l17.63,1.04h9.95l0.19-0.77
		c0.74-3.04,3.43-5.16,6.55-5.16c2.93,0,5.51,1.88,6.42,4.67l0.3,0.92l3.01-0.25c2.23-0.6,3.79-1.63,3.79-3.94
		C79.94,54.04,77.65,51.74,74.82,51.74z"/>
	<g>
		<path class="st1" d="M66.43,67.43c-3.36,0-6.27-2.28-7.06-5.56l-0.09-0.38H32.51l-0.09,0.37c-0.79,3.27-3.7,5.56-7.06,5.56
			c-3.37,0-6.27-2.28-7.06-5.56l-0.09-0.37h-4.24c-0.73,0-1.33-0.59-1.33-1.32l-0.03-6.95c0-0.35,0.13-0.69,0.39-0.94
			c0.25-0.25,0.58-0.39,0.94-0.4c0.74,0,1.33,0.6,1.34,1.33l0.03,5.63h2.91l0.09-0.38c0.79-3.27,3.69-5.56,7.06-5.56
			c3.36,0,6.27,2.28,7.06,5.55l0.09,0.38h26.76l0.09-0.38c0.79-3.27,3.7-5.56,7.06-5.56c3.16,0,5.94,2.02,6.91,5.03l0.14,0.44
			l0.45-0.12c2-0.54,3.4-2.36,3.4-4.44c0-2.53-2.06-4.6-4.6-4.6H56.78c-0.73,0-1.33-0.59-1.33-1.32l-0.09-13.69
			c0-0.36,0.13-0.69,0.39-0.95c0.25-0.25,0.59-0.39,0.95-0.39h4.37l-2.12-3.15c-0.71-1.05-1.89-1.68-3.16-1.68H32.13L32.1,28.5
			c-0.47,7.93-7.06,14.15-15.01,14.15c-8.29,0-15.04-6.75-15.04-15.04S8.8,12.57,17.09,12.57c7.3,0,13.53,5.22,14.81,12.4l0.07,0.41
			h23.82c2.16,0,4.16,1.07,5.37,2.86L73.49,46.6l0.22,0.03c3.59,0.48,6.3,3.57,6.3,7.2c0,3.54-2.53,6.55-6.01,7.15l-0.34,0.06
			l-0.06,0.34C73,64.89,69.99,67.43,66.43,67.43z M66.43,55.57c-2.54,0-4.6,2.06-4.6,4.6c0,2.54,2.06,4.6,4.6,4.6
			c2.54,0,4.6-2.06,4.6-4.6C71.03,57.64,68.96,55.57,66.43,55.57z M25.36,55.57c-2.54,0-4.6,2.06-4.6,4.6c0,2.54,2.06,4.6,4.6,4.6
			c2.53,0,4.6-2.06,4.6-4.6C29.96,57.64,27.9,55.57,25.36,55.57z M70.25,46.56l-7.4-11.02h-4.82l0.08,11.02H70.25z M17.09,15.23
			c-3.47,0-6.81,1.49-9.16,4.09c-0.31,0.34-0.6,0.69-0.86,1.05C5.53,22.5,4.72,25,4.72,27.61s0.81,5.1,2.36,7.23
			c0.26,0.35,0.54,0.71,0.85,1.05c2.35,2.6,5.69,4.09,9.16,4.09s6.81-1.49,9.16-4.09c0.31-0.34,0.59-0.69,0.85-1.05
			c1.54-2.13,2.35-4.63,2.35-7.23s-0.81-5.11-2.36-7.23c-0.26-0.36-0.55-0.71-0.85-1.05C23.9,16.72,20.56,15.23,17.09,15.23z"/>
		<path class="st1" d="M6.18,49.15c-0.73,0-1.33-0.59-1.33-1.33s0.59-1.33,1.33-1.34l9.08-0.03c0.73,0,1.33,0.59,1.34,1.33
			c0,0.74-0.59,1.33-1.33,1.34L6.18,49.15L6.18,49.15z"/>
		<path class="st1" d="M16.08,47.78c0-0.44-0.37-0.81-0.82-0.81L6.18,47c-0.44,0-0.81,0.37-0.81,0.81c0,0.44,0.37,0.81,0.81,0.81
			l9.09-0.02C15.72,48.6,16.08,48.23,16.08,47.78z"/>
		<path class="st1" d="M1.33,44.23C0.6,44.23,0,43.64,0,42.91c0-0.74,0.59-1.33,1.33-1.34l5.14-0.02c0.73,0,1.33,0.59,1.34,1.32
			c0,0.74-0.59,1.33-1.33,1.34L1.33,44.23L1.33,44.23z"/>
		<path class="st1" d="M7.28,42.87c0-0.44-0.37-0.81-0.81-0.81l-5.14,0.02c-0.45,0-0.81,0.37-0.81,0.81c0,0.44,0.37,0.81,0.81,0.81
			l5.14-0.02C6.92,43.68,7.28,43.31,7.28,42.87z"/>
		<g class="st2">
			<g>
				<g>
					<defs>
						<rect id="SVGID_1_" x="10.18" y="22.92" width="13.16" height="10"/>
					</defs>
					<clipPath id="SVGID_2_">
						<use xlink:href="#SVGID_1_"  style="overflow:visible;"/>
					</clipPath>
					<g class="st3">
						<g>
							<defs>
								<path id="SVGID_3_" d="M21.11,23.71l-6.55,6.55l-2.38-2.38c-0.41-0.41-1.08-0.41-1.49,0s-0.41,1.08,0,1.49l3.13,3.13
									c0.21,0.21,0.47,0.31,0.74,0.31c0.27,0,0.54-0.1,0.74-0.31l7.29-7.29c0.41-0.41,0.41-1.08,0-1.49
									C22.19,23.3,21.52,23.3,21.11,23.71"/>
							</defs>
							<clipPath id="SVGID_4_">
								<use xlink:href="#SVGID_3_"  style="overflow:visible;"/>
							</clipPath>
							<g class="st4">
								<g>
									<defs>
										<rect id="SVGID_5_" x="10.18" y="22.92" width="13.16" height="10"/>
									</defs>
									<clipPath id="SVGID_6_">
										<use xlink:href="#SVGID_5_"  style="overflow:visible;"/>
									</clipPath>
									<rect x="7.75" y="20.77" class="st5" width="17.79" height="14.66"/>
								</g>
							</g>
						</g>
					</g>
				</g>
			</g>
		</g>
	</g>
</g>
<g id="Pound" class="st6">
	<g class="st7">
		<g>
			<g>
				<defs>
					<path id="SVGID_7_" d="M141.72-554.63h0.68c4.01-0.01,18.46-0.15,18.49,0.75c0.3,0.07,0.59,0.24,0.81,0.49
						c0.59,0.66,0.54,1.68-0.12,2.27c-3.66,3.3-5.83,7.42-6.52,12.42c-0.09,0.68-0.59,1.19-1.22,1.34
						c-0.09,0.06-0.18,0.12-0.28,0.16c-3.63,1.63-7.5,2.45-11.5,2.45s-7.87-0.82-11.5-2.45c-0.04-0.02-0.08-0.06-0.13-0.13
						c-0.71-0.09-1.29-0.64-1.39-1.37c-0.69-5-2.86-9.11-6.52-12.42c-0.66-0.59-0.71-1.61-0.12-2.27c0.49-0.55,1.27-0.68,1.9-0.37
						C125.18-554.8,137.91-554.64,141.72-554.63z"/>
				</defs>
				<clipPath id="SVGID_8_">
					<use xlink:href="#SVGID_7_"  style="overflow:visible;"/>
				</clipPath>
			</g>
		</g>
		<g>
			<g>
				<defs>
					<ellipse id="SVGID_9_" cx="142.24" cy="-568.56" rx="26.65" ry="26.76"/>
				</defs>
				<clipPath id="SVGID_10_">
					<use xlink:href="#SVGID_9_"  style="overflow:visible;"/>
				</clipPath>
			</g>
		</g>
		<g>
			<g>
				<defs>
					<path id="SVGID_11_" d="M139.36-543.26c-15.58,0-28.25-12.73-28.25-28.37S123.78-600,139.36-600s28.25,12.73,28.25,28.37
						S154.93-543.26,139.36-543.26z M139.36-596.79c-13.81,0-25.05,11.29-25.05,25.16s11.24,25.16,25.05,25.16
						s25.05-11.29,25.05-25.16S153.17-596.79,139.36-596.79z"/>
				</defs>
				<clipPath id="SVGID_12_">
					<use xlink:href="#SVGID_11_"  style="overflow:visible;"/>
				</clipPath>
			</g>
		</g>
		<g>
			<g>
				<defs>
					<path id="SVGID_13_" d="M139.36-534.78c-4,0-7.87-0.82-11.5-2.45c-0.81-0.36-1.17-1.31-0.81-2.12s1.3-1.17,2.11-0.81
						c3.21,1.44,6.64,2.17,10.19,2.17s6.98-0.73,10.19-2.17c0.81-0.36,1.75,0,2.11,0.81s0,1.76-0.81,2.12
						C147.23-535.6,143.36-534.78,139.36-534.78"/>
				</defs>
				<clipPath id="SVGID_14_">
					<use xlink:href="#SVGID_13_"  style="overflow:visible;"/>
				</clipPath>
			</g>
		</g>
		<g>
			<g>
				<defs>
					<path id="SVGID_15_" d="M139.36-527.39c-3.43,0-6.74-0.82-9.85-2.45c-0.69-0.36-1-1.31-0.69-2.12s1.12-1.18,1.81-0.81
						c2.75,1.44,5.69,2.17,8.73,2.17s5.98-0.73,8.73-2.17c0.69-0.36,1.5,0,1.81,0.81s0,1.76-0.69,2.12
						C146.1-528.21,142.78-527.39,139.36-527.39"/>
				</defs>
				<clipPath id="SVGID_16_">
					<use xlink:href="#SVGID_15_"  style="overflow:visible;"/>
				</clipPath>
			</g>
		</g>
		<g>
			<g>
				<defs>
					<path id="SVGID_17_" d="M139.36-520c-2.38,0-4.75-0.3-7.06-0.9c-0.86-0.22-1.37-1.1-1.15-1.96c0.22-0.86,1.09-1.37,1.95-1.15
						c4.1,1.06,8.43,1.06,12.53,0c0.85-0.22,1.73,0.3,1.95,1.15c0.22,0.86-0.29,1.73-1.15,1.96C144.11-520.3,141.73-520,139.36-520"
						/>
				</defs>
				<clipPath id="SVGID_18_">
					<use xlink:href="#SVGID_17_"  style="overflow:visible;"/>
				</clipPath>
			</g>
		</g>
		<g>
			<g>
				<defs>
					<path id="SVGID_19_" d="M129.39-539.11c-0.84-5.79-3.5-10.65-7.95-14.49c-0.69-0.6-1.76-0.54-2.38,0.12
						c-0.62,0.67-0.56,1.69,0.13,2.29c3.85,3.33,6.13,7.49,6.86,12.53c0.13,0.89,0.98,1.5,1.9,1.38
						C128.88-537.41,129.52-538.22,129.39-539.11z"/>
				</defs>
				<clipPath id="SVGID_20_">
					<use xlink:href="#SVGID_19_"  style="overflow:visible;"/>
				</clipPath>
			</g>
		</g>
		<g>
			<g>
				<defs>
					<path id="SVGID_21_" d="M148.57-539.11c0.84-5.79,3.5-10.65,7.95-14.49c0.69-0.6,1.76-0.54,2.38,0.12
						c0.62,0.67,0.56,1.69-0.13,2.29c-3.85,3.33-6.13,7.49-6.86,12.53c-0.13,0.89-0.98,1.5-1.9,1.38S148.44-538.22,148.57-539.11z"
						/>
				</defs>
				<clipPath id="SVGID_22_">
					<use xlink:href="#SVGID_21_"  style="overflow:visible;"/>
				</clipPath>
			</g>
		</g>
	</g>
</g>
<g id="Yen" class="st6">
	<g class="st7">
		<g>
			<g>
				<defs>
					<path id="SVGID_23_" d="M141.72-554.63h0.68c4.01-0.01,18.46-0.15,18.49,0.75c0.3,0.07,0.59,0.24,0.81,0.49
						c0.59,0.66,0.54,1.68-0.12,2.27c-3.66,3.3-5.83,7.42-6.52,12.42c-0.09,0.68-0.59,1.19-1.22,1.34
						c-0.09,0.06-0.18,0.12-0.28,0.16c-3.63,1.63-7.5,2.45-11.5,2.45s-7.87-0.82-11.5-2.45c-0.04-0.02-0.08-0.06-0.13-0.13
						c-0.71-0.09-1.29-0.64-1.39-1.37c-0.69-5-2.86-9.11-6.52-12.42c-0.66-0.59-0.71-1.61-0.12-2.27c0.49-0.55,1.27-0.68,1.9-0.37
						C125.18-554.8,137.91-554.64,141.72-554.63z"/>
				</defs>
				<clipPath id="SVGID_24_">
					<use xlink:href="#SVGID_23_"  style="overflow:visible;"/>
				</clipPath>
			</g>
		</g>
		<g>
			<g>
				<defs>
					<ellipse id="SVGID_25_" cx="142.24" cy="-568.56" rx="26.65" ry="26.76"/>
				</defs>
				<clipPath id="SVGID_26_">
					<use xlink:href="#SVGID_25_"  style="overflow:visible;"/>
				</clipPath>
			</g>
		</g>
		<g>
			<g>
				<defs>
					<path id="SVGID_27_" d="M139.36-543.26c-15.58,0-28.25-12.73-28.25-28.37S123.78-600,139.36-600s28.25,12.73,28.25,28.37
						S154.93-543.26,139.36-543.26z M139.36-596.79c-13.81,0-25.05,11.29-25.05,25.16s11.24,25.16,25.05,25.16
						s25.05-11.29,25.05-25.16S153.17-596.79,139.36-596.79z"/>
				</defs>
				<clipPath id="SVGID_28_">
					<use xlink:href="#SVGID_27_"  style="overflow:visible;"/>
				</clipPath>
			</g>
		</g>
		<g>
			<g>
				<defs>
					<path id="SVGID_29_" d="M139.36-534.78c-4,0-7.87-0.82-11.5-2.45c-0.81-0.36-1.17-1.31-0.81-2.12s1.3-1.17,2.11-0.81
						c3.21,1.44,6.64,2.17,10.19,2.17s6.98-0.73,10.19-2.17c0.81-0.36,1.75,0,2.11,0.81s0,1.76-0.81,2.12
						C147.23-535.6,143.36-534.78,139.36-534.78"/>
				</defs>
				<clipPath id="SVGID_30_">
					<use xlink:href="#SVGID_29_"  style="overflow:visible;"/>
				</clipPath>
			</g>
		</g>
		<g>
			<g>
				<defs>
					<path id="SVGID_31_" d="M139.36-527.39c-3.43,0-6.74-0.82-9.85-2.45c-0.69-0.36-1-1.31-0.69-2.12s1.12-1.18,1.81-0.81
						c2.75,1.44,5.69,2.17,8.73,2.17s5.98-0.73,8.73-2.17c0.69-0.36,1.5,0,1.81,0.81s0,1.76-0.69,2.12
						C146.1-528.21,142.78-527.39,139.36-527.39"/>
				</defs>
				<clipPath id="SVGID_32_">
					<use xlink:href="#SVGID_31_"  style="overflow:visible;"/>
				</clipPath>
			</g>
		</g>
		<g>
			<g>
				<defs>
					<path id="SVGID_33_" d="M139.36-520c-2.38,0-4.75-0.3-7.06-0.9c-0.86-0.22-1.37-1.1-1.15-1.96c0.22-0.86,1.09-1.37,1.95-1.15
						c4.1,1.06,8.43,1.06,12.53,0c0.85-0.22,1.73,0.3,1.95,1.15c0.22,0.86-0.29,1.73-1.15,1.96C144.11-520.3,141.73-520,139.36-520"
						/>
				</defs>
				<clipPath id="SVGID_34_">
					<use xlink:href="#SVGID_33_"  style="overflow:visible;"/>
				</clipPath>
			</g>
		</g>
		<g>
			<g>
				<defs>
					<path id="SVGID_35_" d="M129.39-539.11c-0.84-5.79-3.5-10.65-7.95-14.49c-0.69-0.6-1.76-0.54-2.38,0.12
						c-0.62,0.67-0.56,1.69,0.13,2.29c3.85,3.33,6.13,7.49,6.86,12.53c0.13,0.89,0.98,1.5,1.9,1.38
						C128.88-537.41,129.52-538.22,129.39-539.11z"/>
				</defs>
				<clipPath id="SVGID_36_">
					<use xlink:href="#SVGID_35_"  style="overflow:visible;"/>
				</clipPath>
			</g>
		</g>
		<g>
			<g>
				<defs>
					<path id="SVGID_37_" d="M148.57-539.11c0.84-5.79,3.5-10.65,7.95-14.49c0.69-0.6,1.76-0.54,2.38,0.12
						c0.62,0.67,0.56,1.69-0.13,2.29c-3.85,3.33-6.13,7.49-6.86,12.53c-0.13,0.89-0.98,1.5-1.9,1.38S148.44-538.22,148.57-539.11z"
						/>
				</defs>
				<clipPath id="SVGID_38_">
					<use xlink:href="#SVGID_37_"  style="overflow:visible;"/>
				</clipPath>
			</g>
		</g>
	</g>
</g>
<g id="Euro" class="st6">
	<g class="st7">
		<g>
			<g>
				<defs>
					<path id="SVGID_39_" d="M141.72-554.63h0.68c4.01-0.01,18.46-0.15,18.49,0.75c0.3,0.07,0.59,0.24,0.81,0.49
						c0.59,0.66,0.54,1.68-0.12,2.27c-3.66,3.3-5.83,7.42-6.52,12.42c-0.09,0.68-0.59,1.19-1.22,1.34
						c-0.09,0.06-0.18,0.12-0.28,0.16c-3.63,1.63-7.5,2.45-11.5,2.45s-7.87-0.82-11.5-2.45c-0.04-0.02-0.08-0.06-0.13-0.13
						c-0.71-0.09-1.29-0.64-1.39-1.37c-0.69-5-2.86-9.11-6.52-12.42c-0.66-0.59-0.71-1.61-0.12-2.27c0.49-0.55,1.27-0.68,1.9-0.37
						C125.18-554.8,137.91-554.64,141.72-554.63z"/>
				</defs>
				<clipPath id="SVGID_40_">
					<use xlink:href="#SVGID_39_"  style="overflow:visible;"/>
				</clipPath>
			</g>
		</g>
		<g>
			<g>
				<defs>
					<ellipse id="SVGID_41_" cx="142.24" cy="-568.56" rx="26.65" ry="26.76"/>
				</defs>
				<clipPath id="SVGID_42_">
					<use xlink:href="#SVGID_41_"  style="overflow:visible;"/>
				</clipPath>
			</g>
		</g>
		<g>
			<g>
				<defs>
					<path id="SVGID_43_" d="M139.36-543.26c-15.58,0-28.25-12.73-28.25-28.37S123.78-600,139.36-600s28.25,12.73,28.25,28.37
						S154.93-543.26,139.36-543.26z M139.36-596.79c-13.81,0-25.05,11.29-25.05,25.16s11.24,25.16,25.05,25.16
						s25.05-11.29,25.05-25.16S153.17-596.79,139.36-596.79z"/>
				</defs>
				<clipPath id="SVGID_44_">
					<use xlink:href="#SVGID_43_"  style="overflow:visible;"/>
				</clipPath>
			</g>
		</g>
		<g>
			<g>
				<defs>
					<path id="SVGID_45_" d="M139.36-534.78c-4,0-7.87-0.82-11.5-2.45c-0.81-0.36-1.17-1.31-0.81-2.12s1.3-1.17,2.11-0.81
						c3.21,1.44,6.64,2.17,10.19,2.17s6.98-0.73,10.19-2.17c0.81-0.36,1.75,0,2.11,0.81s0,1.76-0.81,2.12
						C147.23-535.6,143.36-534.78,139.36-534.78"/>
				</defs>
				<clipPath id="SVGID_46_">
					<use xlink:href="#SVGID_45_"  style="overflow:visible;"/>
				</clipPath>
			</g>
		</g>
		<g>
			<g>
				<defs>
					<path id="SVGID_47_" d="M139.36-527.39c-3.43,0-6.74-0.82-9.85-2.45c-0.69-0.36-1-1.31-0.69-2.12s1.12-1.18,1.81-0.81
						c2.75,1.44,5.69,2.17,8.73,2.17s5.98-0.73,8.73-2.17c0.69-0.36,1.5,0,1.81,0.81s0,1.76-0.69,2.12
						C146.1-528.21,142.78-527.39,139.36-527.39"/>
				</defs>
				<clipPath id="SVGID_48_">
					<use xlink:href="#SVGID_47_"  style="overflow:visible;"/>
				</clipPath>
			</g>
		</g>
		<g>
			<g>
				<defs>
					<path id="SVGID_49_" d="M139.36-520c-2.38,0-4.75-0.3-7.06-0.9c-0.86-0.22-1.37-1.1-1.15-1.96c0.22-0.86,1.09-1.37,1.95-1.15
						c4.1,1.06,8.43,1.06,12.53,0c0.85-0.22,1.73,0.3,1.95,1.15c0.22,0.86-0.29,1.73-1.15,1.96C144.11-520.3,141.73-520,139.36-520"
						/>
				</defs>
				<clipPath id="SVGID_50_">
					<use xlink:href="#SVGID_49_"  style="overflow:visible;"/>
				</clipPath>
			</g>
		</g>
		<g>
			<g>
				<defs>
					<path id="SVGID_51_" d="M129.39-539.11c-0.84-5.79-3.5-10.65-7.95-14.49c-0.69-0.6-1.76-0.54-2.38,0.12
						c-0.62,0.67-0.56,1.69,0.13,2.29c3.85,3.33,6.13,7.49,6.86,12.53c0.13,0.89,0.98,1.5,1.9,1.38
						C128.88-537.41,129.52-538.22,129.39-539.11z"/>
				</defs>
				<clipPath id="SVGID_52_">
					<use xlink:href="#SVGID_51_"  style="overflow:visible;"/>
				</clipPath>
			</g>
		</g>
		<g>
			<g>
				<defs>
					<path id="SVGID_53_" d="M148.57-539.11c0.84-5.79,3.5-10.65,7.95-14.49c0.69-0.6,1.76-0.54,2.38,0.12
						c0.62,0.67,0.56,1.69-0.13,2.29c-3.85,3.33-6.13,7.49-6.86,12.53c-0.13,0.89-0.98,1.5-1.9,1.38S148.44-538.22,148.57-539.11z"
						/>
				</defs>
				<clipPath id="SVGID_54_">
					<use xlink:href="#SVGID_53_"  style="overflow:visible;"/>
				</clipPath>
			</g>
		</g>
	</g>
</g>
<g id="Rupee" class="st6">
	<g class="st7">
		<g>
			<g>
				<defs>
					<path id="SVGID_55_" d="M141.72-554.63h0.68c4.01-0.01,18.46-0.15,18.49,0.75c0.3,0.07,0.59,0.24,0.81,0.49
						c0.59,0.66,0.54,1.68-0.12,2.27c-3.66,3.3-5.83,7.42-6.52,12.42c-0.09,0.68-0.59,1.19-1.22,1.34
						c-0.09,0.06-0.18,0.12-0.28,0.16c-3.63,1.63-7.5,2.45-11.5,2.45s-7.87-0.82-11.5-2.45c-0.04-0.02-0.08-0.06-0.13-0.13
						c-0.71-0.09-1.29-0.64-1.39-1.37c-0.69-5-2.86-9.11-6.52-12.42c-0.66-0.59-0.71-1.61-0.12-2.27c0.49-0.55,1.27-0.68,1.9-0.37
						C125.18-554.8,137.91-554.64,141.72-554.63z"/>
				</defs>
				<clipPath id="SVGID_56_">
					<use xlink:href="#SVGID_55_"  style="overflow:visible;"/>
				</clipPath>
			</g>
		</g>
		<g>
			<g>
				<defs>
					<ellipse id="SVGID_57_" cx="142.24" cy="-568.56" rx="26.65" ry="26.76"/>
				</defs>
				<clipPath id="SVGID_58_">
					<use xlink:href="#SVGID_57_"  style="overflow:visible;"/>
				</clipPath>
			</g>
		</g>
		<g>
			<g>
				<defs>
					<path id="SVGID_59_" d="M139.36-543.26c-15.58,0-28.25-12.73-28.25-28.37S123.78-600,139.36-600s28.25,12.73,28.25,28.37
						S154.93-543.26,139.36-543.26z M139.36-596.79c-13.81,0-25.05,11.29-25.05,25.16s11.24,25.16,25.05,25.16
						s25.05-11.29,25.05-25.16S153.17-596.79,139.36-596.79z"/>
				</defs>
				<clipPath id="SVGID_60_">
					<use xlink:href="#SVGID_59_"  style="overflow:visible;"/>
				</clipPath>
			</g>
		</g>
		<g>
			<g>
				<defs>
					<path id="SVGID_61_" d="M139.36-534.78c-4,0-7.87-0.82-11.5-2.45c-0.81-0.36-1.17-1.31-0.81-2.12s1.3-1.17,2.11-0.81
						c3.21,1.44,6.64,2.17,10.19,2.17s6.98-0.73,10.19-2.17c0.81-0.36,1.75,0,2.11,0.81s0,1.76-0.81,2.12
						C147.23-535.6,143.36-534.78,139.36-534.78"/>
				</defs>
				<clipPath id="SVGID_62_">
					<use xlink:href="#SVGID_61_"  style="overflow:visible;"/>
				</clipPath>
			</g>
		</g>
		<g>
			<g>
				<defs>
					<path id="SVGID_63_" d="M139.36-527.39c-3.43,0-6.74-0.82-9.85-2.45c-0.69-0.36-1-1.31-0.69-2.12s1.12-1.18,1.81-0.81
						c2.75,1.44,5.69,2.17,8.73,2.17s5.98-0.73,8.73-2.17c0.69-0.36,1.5,0,1.81,0.81s0,1.76-0.69,2.12
						C146.1-528.21,142.78-527.39,139.36-527.39"/>
				</defs>
				<clipPath id="SVGID_64_">
					<use xlink:href="#SVGID_63_"  style="overflow:visible;"/>
				</clipPath>
			</g>
		</g>
		<g>
			<g>
				<defs>
					<path id="SVGID_65_" d="M139.36-520c-2.38,0-4.75-0.3-7.06-0.9c-0.86-0.22-1.37-1.1-1.15-1.96c0.22-0.86,1.09-1.37,1.95-1.15
						c4.1,1.06,8.43,1.06,12.53,0c0.85-0.22,1.73,0.3,1.95,1.15c0.22,0.86-0.29,1.73-1.15,1.96C144.11-520.3,141.73-520,139.36-520"
						/>
				</defs>
				<clipPath id="SVGID_66_">
					<use xlink:href="#SVGID_65_"  style="overflow:visible;"/>
				</clipPath>
			</g>
		</g>
		<g>
			<g>
				<defs>
					<path id="SVGID_67_" d="M129.39-539.11c-0.84-5.79-3.5-10.65-7.95-14.49c-0.69-0.6-1.76-0.54-2.38,0.12
						c-0.62,0.67-0.56,1.69,0.13,2.29c3.85,3.33,6.13,7.49,6.86,12.53c0.13,0.89,0.98,1.5,1.9,1.38
						C128.88-537.41,129.52-538.22,129.39-539.11z"/>
				</defs>
				<clipPath id="SVGID_68_">
					<use xlink:href="#SVGID_67_"  style="overflow:visible;"/>
				</clipPath>
			</g>
		</g>
		<g>
			<g>
				<defs>
					<path id="SVGID_69_" d="M148.57-539.11c0.84-5.79,3.5-10.65,7.95-14.49c0.69-0.6,1.76-0.54,2.38,0.12
						c0.62,0.67,0.56,1.69-0.13,2.29c-3.85,3.33-6.13,7.49-6.86,12.53c-0.13,0.89-0.98,1.5-1.9,1.38S148.44-538.22,148.57-539.11z"
						/>
				</defs>
				<clipPath id="SVGID_70_">
					<use xlink:href="#SVGID_69_"  style="overflow:visible;"/>
				</clipPath>
			</g>
		</g>
	</g>
</g>
</svg>
